<?xml version="1.0" encoding="utf-8" standalone="no"?><!DOCTYPE svg PUBLIC "-//W3C//DTD SVG 20010904//EN" "http://www.w3.org/TR/2001/REC-SVG-20010904/DTD/svg10.dtd"><svg xmlns="http://www.w3.org/2000/svg" width="560" height="298" xmlns:xlink="http://www.w3.org/1999/xlink"><source><![CDATA[Usuario->Controller: request
Controller->Service: operação
Service->Repositório: persistência
Repositório->H2: dados]]></source><desc></desc><defs><marker viewBox="0 0 5 5" markerWidth="5" markerHeight="5" orient="auto" refX="5" refY="2.5" id="markerArrowBlock"><path d="M 0 0 L 5 2.5 L 0 5 z"></path></marker><marker viewBox="0 0 9.6 16" markerWidth="4" markerHeight="16" orient="auto" refX="9.6" refY="8" id="markerArrowOpen"><path d="M 9.6,8 1.92,16 0,13.7 5.76,8 0,2.286 1.92,0 9.6,8 z"></path></marker></defs><g class="title"></g><g class="actor"><path d="M10,20C83.9,23.5 45.5,16.5 98.0,20.0C99.6,53.6 96.4,39.3 98.0,60.0C45.7,56.5 29.2,63.5 10.0,60.0C8.4,43.6 11.6,45.1 10.0,20.0" stroke="#000000" fill="#ffffff" style="stroke-width: 2;"></path><text x="20" y="45" style="font-size: 16px; font-family: danielbd;"><tspan x="20">Usuario</tspan></text></g><g class="actor"><path d="M10,238C73.8,241.5 24.1,234.5 98.0,238.0C99.6,263.2 96.4,249.6 98.0,278.0C74.4,281.5 55.9,274.5 10.0,278.0C8.4,268.4 11.6,259.7 10.0,238.0" stroke="#000000" fill="#ffffff" style="stroke-width: 2;"></path><text x="20" y="263" style="font-size: 16px; font-family: danielbd;"><tspan x="20">Usuario</tspan></text></g><path d="M54.0,60.0C61.1,124.3 46.9,205.5 54.0,238.0" stroke="#000000" fill="none" style="stroke-width: 2;"></path><g class="actor"><path d="M118.03125,20C145.1,24.5 203.8,15.5 230.9,20.0C229.3,29.6 232.5,29.7 230.9,60.0C212.8,55.5 147.5,64.5 118.0,60.0C116.4,50.4 119.6,38.0 118.0,20.0" stroke="#000000" fill="#ffffff" style="stroke-width: 2;"></path><text x="128.03125" y="45.5" style="font-size: 16px; font-family: danielbd;"><tspan x="128.03125">Controller</tspan></text></g><g class="actor"><path d="M118.03125,238C195.3,233.5 160.8,242.5 230.9,238.0C232.5,244.4 229.3,271.6 230.9,278.0C145.1,282.5 203.8,273.5 118.0,278.0C116.4,248.8 119.6,266.7 118.0,238.0" stroke="#000000" fill="#ffffff" style="stroke-width: 2;"></path><text x="128.03125" y="263.5" style="font-size: 16px; font-family: danielbd;"><tspan x="128.03125">Controller</tspan></text></g><path d="M174.5,60.0C181.6,198.2 167.3,88.5 174.5,238.0" stroke="#000000" fill="none" style="stroke-width: 2;"></path><g class="actor"><path d="M250.875,20C271.2,16.8 277.2,23.2 330.5,20.0C332.1,53.6 328.9,36.7 330.5,60.0C295.7,63.2 263.6,56.8 250.9,60.0C249.3,46.9 252.5,26.4 250.9,20.0" stroke="#000000" fill="#ffffff" style="stroke-width: 2;"></path><text x="261.875" y="45" style="font-size: 16px; font-family: danielbd;"><tspan x="260.875">Service</tspan></text></g><g class="actor"><path d="M250.875,238C304.2,234.8 307.9,241.2 330.5,238.0C332.1,244.4 328.9,247.6 330.5,278.0C309.1,281.2 292.5,274.8 250.9,278.0C252.5,252.9 249.3,271.6 250.9,238.0" stroke="#000000" fill="#ffffff" style="stroke-width: 2;"></path><text x="261.875" y="263" style="font-size: 16px; font-family: danielbd;"><tspan x="260.875">Service</tspan></text></g><path d="M290.7,60.0C283.6,195.3 297.8,132.3 290.7,238.0" stroke="#000000" fill="none" style="stroke-width: 2;"></path><g class="actor"><path d="M350.484375,20C379.9,15.4 388.5,24.6 465.5,20.0C467.1,52.8 463.9,31.5 465.5,60.0C378.1,55.4 406.7,64.6 350.5,60.0C348.9,50.4 352.1,30.2 350.5,20.0" stroke="#000000" fill="#ffffff" style="stroke-width: 2;"></path><text x="360.484375" y="43" style="font-size: 16px; font-family: danielbd;"><tspan x="360.484375">Repositório</tspan></text></g><g class="actor"><path d="M350.484375,238C426.8,242.6 416.3,233.4 465.5,238.0C467.1,254.5 463.9,247.6 465.5,278.0C437.9,273.4 447.1,282.6 350.5,278.0C348.9,268.4 352.1,254.3 350.5,238.0" stroke="#000000" fill="#ffffff" style="stroke-width: 2;"></path><text x="360.484375" y="261" style="font-size: 16px; font-family: danielbd;"><tspan x="360.484375">Repositório</tspan></text></g><path d="M408.0,60.0C415.1,88.5 400.9,193.7 408.0,238.0" stroke="#000000" fill="none" style="stroke-width: 2;"></path><g class="actor"><path d="M485.546875,20C520.3,18.2 500.2,21.8 530.4,20.0C528.8,30.5 532.0,31.1 530.4,60.0C492.7,61.8 496.3,58.2 485.5,60.0C487.1,37.4 483.9,47.3 485.5,20.0" stroke="#000000" fill="#ffffff" style="stroke-width: 2;"></path><text x="495.546875" y="45" style="font-size: 16px; font-family: danielbd;"><tspan x="495.546875">H2</tspan></text></g><g class="actor"><path d="M485.546875,238C492.7,236.2 508.9,239.8 530.4,238.0C532.0,244.7 528.8,258.6 530.4,278.0C502.4,279.8 516.7,276.2 485.5,278.0C483.9,268.4 487.1,251.5 485.5,238.0" stroke="#000000" fill="#ffffff" style="stroke-width: 2;"></path><text x="495.546875" y="263" style="font-size: 16px; font-family: danielbd;"><tspan x="495.546875">H2</tspan></text></g><path d="M508.0,60.0C515.1,195.3 500.8,110.9 508.0,238.0" stroke="#000000" fill="none" style="stroke-width: 2;"></path><g class="signal"><text x="80.421875" y="87.5" style="font-size: 16px; font-family: danielbd;"><tspan x="80.421875">request</tspan></text><path d="M54.0,101.0C155.2,105.8 137.1,96.2 174.5,101.0" stroke="#000000" fill="none" style="stroke-width: 2; marker-end: url(&quot;#markerArrowBlock&quot;);"></path></g><g class="signal"><text x="195.96484375" y="129" style="font-size: 16px; font-family: danielbd;"><tspan x="195.96484375">operação</tspan></text><path d="M174.5,141.0C255.5,145.6 247.7,136.4 290.7,141.0" stroke="#000000" fill="none" style="stroke-width: 2; marker-end: url(&quot;#markerArrowBlock&quot;);"></path></g><g class="signal"><text x="301.61328125" y="169" style="font-size: 16px; font-family: danielbd;"><tspan x="301.61328125">persistência</tspan></text><path d="M290.7,181.0C318.8,185.7 350.2,176.3 408.0,181.0" stroke="#000000" fill="none" style="stroke-width: 2; marker-end: url(&quot;#markerArrowBlock&quot;);"></path></g><g class="signal"><text x="432.80078125" y="211.5" style="font-size: 16px; font-family: danielbd;"><tspan x="432.80078125">dados</tspan></text><path d="M408.0,218.0C465.6,214.0 444.4,222.0 508.0,218.0" stroke="#000000" fill="none" style="stroke-width: 2; marker-end: url(&quot;#markerArrowBlock&quot;);"></path></g></svg>